<?xml version="1.0" encoding="UTF-8"?>
<svg xmlns="http://www.w3.org/2000/svg" width="720" height="400" viewBox="0 0 720 400" role="img" aria-label="Pass rate by scenario, clean vs messy">
  <rect width="100%" height="100%" fill="#ffffff"/>
  <text x="148" y="28" fill="#0f172a" font-size="16" font-weight="600" font-family="ui-sans-serif, system-ui, sans-serif">Pass rate by scenario</text>
  <text x="148" y="48" fill="#64748b" font-size="12" font-family="ui-sans-serif, system-ui, sans-serif">N=10 paired live compares · higher is better</text>
  <rect x="510" y="18" width="12" height="12" fill="#2563eb" rx="2"/>
  <text x="528" y="28" fill="#0f172a" font-size="12" font-family="ui-sans-serif, system-ui, sans-serif">skeleton-clean</text>
  <rect x="620" y="18" width="12" height="12" fill="#ea580c" rx="2"/>
  <text x="638" y="28" fill="#0f172a" font-size="12" font-family="ui-sans-serif, system-ui, sans-serif">skeleton-messy</text>
  
  <line x1="148" y1="68" x2="148" y2="352" stroke="#e2e8f0" stroke-width="1"/>
  <text x="148" y="378" text-anchor="middle" fill="#64748b" font-size="11" font-family="ui-sans-serif, system-ui, sans-serif">0%</text>
  <line x1="273" y1="68" x2="273" y2="352" stroke="#e2e8f0" stroke-width="1"/>
  <text x="273" y="378" text-anchor="middle" fill="#64748b" font-size="11" font-family="ui-sans-serif, system-ui, sans-serif">25%</text>
  <line x1="398" y1="68" x2="398" y2="352" stroke="#e2e8f0" stroke-width="1"/>
  <text x="398" y="378" text-anchor="middle" fill="#64748b" font-size="11" font-family="ui-sans-serif, system-ui, sans-serif">50%</text>
  <line x1="523" y1="68" x2="523" y2="352" stroke="#e2e8f0" stroke-width="1"/>
  <text x="523" y="378" text-anchor="middle" fill="#64748b" font-size="11" font-family="ui-sans-serif, system-ui, sans-serif">75%</text>
  <line x1="648" y1="68" x2="648" y2="352" stroke="#e2e8f0" stroke-width="1"/>
  <text x="648" y="378" text-anchor="middle" fill="#64748b" font-size="11" font-family="ui-sans-serif, system-ui, sans-serif">100%</text>
  <line x1="148" y1="352" x2="648" y2="352" stroke="#64748b" stroke-width="1.5"/>
  
  <text x="136" y="102" text-anchor="end" fill="#0f172a" font-size="13" font-family="ui-sans-serif, system-ui, sans-serif">Conflicting docs</text>
  <rect x="148" y="82" width="500" height="16" fill="#2563eb" rx="3"/>
  <text x="640" y="94" text-anchor="end" fill="#ffffff" font-size="11" font-weight="600" font-family="ui-sans-serif, system-ui, sans-serif">100%</text>
  <rect x="148" y="102" width="0" height="16" fill="#ea580c" rx="3"/>
  <text x="156" y="114" text-anchor="start" fill="#ea580c" font-size="11" font-weight="600" font-family="ui-sans-serif, system-ui, sans-serif">0%</text>
  <text x="136" y="158" text-anchor="end" fill="#0f172a" font-size="13" font-family="ui-sans-serif, system-ui, sans-serif">Docs routing</text>
  <rect x="148" y="138" width="500" height="16" fill="#2563eb" rx="3"/>
  <text x="640" y="150" text-anchor="end" fill="#ffffff" font-size="11" font-weight="600" font-family="ui-sans-serif, system-ui, sans-serif">100%</text>
  <rect x="148" y="158" width="0" height="16" fill="#ea580c" rx="3"/>
  <text x="156" y="170" text-anchor="start" fill="#ea580c" font-size="11" font-weight="600" font-family="ui-sans-serif, system-ui, sans-serif">0%</text>
  <text x="136" y="214" text-anchor="end" fill="#0f172a" font-size="13" font-family="ui-sans-serif, system-ui, sans-serif">Canonical topic</text>
  <rect x="148" y="194" width="500" height="16" fill="#2563eb" rx="3"/>
  <text x="640" y="206" text-anchor="end" fill="#ffffff" font-size="11" font-weight="600" font-family="ui-sans-serif, system-ui, sans-serif">100%</text>
  <rect x="148" y="214" width="400" height="16" fill="#ea580c" rx="3"/>
  <text x="540" y="226" text-anchor="end" fill="#ffffff" font-size="11" font-weight="600" font-family="ui-sans-serif, system-ui, sans-serif">80%</text>
  <text x="136" y="270" text-anchor="end" fill="#0f172a" font-size="13" font-family="ui-sans-serif, system-ui, sans-serif">Owned skill</text>
  <rect x="148" y="250" width="500" height="16" fill="#2563eb" rx="3"/>
  <text x="640" y="262" text-anchor="end" fill="#ffffff" font-size="11" font-weight="600" font-family="ui-sans-serif, system-ui, sans-serif">100%</text>
  <rect x="148" y="270" width="500" height="16" fill="#ea580c" rx="3"/>
  <text x="640" y="282" text-anchor="end" fill="#ffffff" font-size="11" font-weight="600" font-family="ui-sans-serif, system-ui, sans-serif">100%</text>
  <text x="136" y="326" text-anchor="end" fill="#0f172a" font-size="13" font-family="ui-sans-serif, system-ui, sans-serif">Customize</text>
  <rect x="148" y="306" width="500" height="16" fill="#2563eb" rx="3"/>
  <text x="640" y="318" text-anchor="end" fill="#ffffff" font-size="11" font-weight="600" font-family="ui-sans-serif, system-ui, sans-serif">100%</text>
  <rect x="148" y="326" width="500" height="16" fill="#ea580c" rx="3"/>
  <text x="640" y="338" text-anchor="end" fill="#ffffff" font-size="11" font-weight="600" font-family="ui-sans-serif, system-ui, sans-serif">100%</text>
</svg>
